<svg width="1120" height="720" viewBox="0 0 1120 720" fill="none" xmlns="http://www.w3.org/2000/svg">
  <defs>
    <linearGradient id="bg" x1="0" y1="0" x2="1" y2="1">
      <stop offset="0%" stop-color="#0a0f25"/>
      <stop offset="60%" stop-color="#0b1330"/>
      <stop offset="100%" stop-color="#0a0f24"/>
    </linearGradient>
    <filter id="glow" x="-30%" y="-30%" width="160%" height="160%" color-interpolation-filters="sRGB">
      <feGaussianBlur stdDeviation="5" result="blur"/>
      <feMerge>
        <feMergeNode in="blur"/>
        <feMergeNode in="SourceGraphic"/>
      </feMerge>
    </filter>
  </defs>
  <rect width="1120" height="720" rx="28" fill="url(#bg)"/>
  <rect x="18" y="18" width="1084" height="684" rx="24" stroke="#3c477a" stroke-opacity="0.5" stroke-width="2"/>

  <g filter="url(#glow)" stroke="#e7f0ff" stroke-width="16" stroke-linecap="round" stroke-linejoin="round">
    <path d="M130 140H340V220H220V320H360"/>
    <path d="M420 140H920V220H700V300H980"/>
    <path d="M160 360H420V440H260V540H560"/>
    <path d="M560 260H760V360H560V460H760V560H960"/>
    <path d="M140 580H960"/>
    <path d="M940 120V280"/>
  </g>

  <g>
    <circle cx="840" cy="250" r="30" stroke="#2ee6a4" stroke-width="6" fill="none"/>
    <text x="830" y="257" font-family="Inter, sans-serif" font-size="18" fill="#c6f9e7">37</text>
    <circle cx="240" cy="420" r="28" stroke="#ff4d8d" stroke-width="6" fill="none"/>
    <text x="230" y="428" font-family="Inter, sans-serif" font-size="16" fill="#ffd0e2">33</text>
  </g>

  <g>
    <circle cx="520" cy="320" r="6" fill="#ffce47"/>
    <circle cx="540" cy="330" r="6" fill="#ffce47"/>
    <circle cx="560" cy="310" r="6" fill="#ffce47"/>
    <circle cx="580" cy="335" r="6" fill="#ffce47"/>
    <circle cx="600" cy="320" r="6" fill="#ffce47"/>
    <circle cx="620" cy="340" r="6" fill="#ffce47"/>
    <circle cx="640" cy="315" r="6" fill="#ffce47"/>
    <circle cx="660" cy="330" r="6" fill="#ffce47"/>
  </g>

  <g>
    <circle cx="120" cy="110" r="6" fill="#ffd84b" stroke="#ff3f7f" stroke-width="3"/>
    <circle cx="240" cy="90" r="6" fill="#ffd84b" stroke="#ff3f7f" stroke-width="3"/>
    <circle cx="980" cy="130" r="6" fill="#5bffb1" stroke="#ffd84b" stroke-width="3"/>
    <circle cx="1030" cy="160" r="6" fill="#ffd84b" stroke="#ff3f7f" stroke-width="3"/>
    <circle cx="140" cy="630" r="6" fill="#ffd84b" stroke="#ff3f7f" stroke-width="3"/>
    <circle cx="200" cy="650" r="6" fill="#5bffb1" stroke="#ffd84b" stroke-width="3"/>
    <circle cx="880" cy="420" r="6" fill="#5bffb1" stroke="#ffd84b" stroke-width="3"/>
    <circle cx="920" cy="460" r="6" fill="#ffd84b" stroke="#ff3f7f" stroke-width="3"/>
  </g>
</svg>
