<svg width="1200" height="650" viewBox="0 0 1200 650" xmlns="http://www.w3.org/2000/svg" role="img" aria-labelledby="title desc">
  <title id="title">Neural Constellations</title>
  <desc id="desc">Two radiant neural constellations surrounded by golden data points connected across a midnight sky.</desc>
  <defs>
    <radialGradient id="bg" cx="50%" cy="50%" r="70%">
      <stop offset="0%" stop-color="#10163a"/>
      <stop offset="55%" stop-color="#0b1028"/>
      <stop offset="100%" stop-color="#080b1c"/>
    </radialGradient>
    <filter id="glow" x="-40%" y="-40%" width="180%" height="180%">
      <feGaussianBlur stdDeviation="6" result="blur"/>
      <feMerge>
        <feMergeNode in="blur"/>
        <feMergeNode in="SourceGraphic"/>
      </feMerge>
    </filter>
    <linearGradient id="silver" x1="0%" y1="0%" x2="100%" y2="100%">
      <stop offset="0%" stop-color="#f0f6ff"/>
      <stop offset="50%" stop-color="#c6d3f9"/>
      <stop offset="100%" stop-color="#f6fbff"/>
    </linearGradient>
  </defs>
  <rect width="1200" height="650" fill="url(#bg)" rx="22"/>
  <g id="starfield">
    <circle cx="86" cy="459" r="4" fill="#f9d74f" opacity="0.9"/>
    <circle cx="50" cy="231" r="4" fill="#f9d74f" opacity="0.9"/>
    <circle cx="1026" cy="304" r="5" fill="#f9d74f" opacity="0.9"/>
    <circle cx="348" cy="55" r="5" fill="#f9d74f" opacity="0.9"/>
    <circle cx="1023" cy="355" r="3" fill="#f9d74f" opacity="0.9"/>
    <circle cx="531" cy="389" r="3" fill="#f9d74f" opacity="0.9"/>
    <circle cx="880" cy="162" r="5" fill="#f9d74f" opacity="0.9"/>
    <circle cx="747" cy="410" r="4" fill="#f9d74f" opacity="0.9"/>
    <circle cx="600" cy="288" r="4" fill="#f9d74f" opacity="0.9"/>
    <circle cx="377" cy="330" r="5" fill="#f9d74f" opacity="0.9"/>
    <circle cx="762" cy="156" r="4" fill="#f9d74f" opacity="0.9"/>
    <circle cx="510" cy="470" r="5" fill="#f9d74f" opacity="0.9"/>
    <circle cx="788" cy="65" r="5" fill="#f9d74f" opacity="0.9"/>
    <circle cx="28" cy="261" r="3" fill="#f9d74f" opacity="0.9"/>
    <circle cx="419" cy="330" r="5" fill="#f9d74f" opacity="0.9"/>
    <circle cx="769" cy="265" r="4" fill="#f9d74f" opacity="0.9"/>
    <circle cx="1144" cy="481" r="4" fill="#f9d74f" opacity="0.9"/>
    <circle cx="982" cy="86" r="5" fill="#f9d74f" opacity="0.9"/>
    <circle cx="684" cy="533" r="3" fill="#f9d74f" opacity="0.9"/>
    <circle cx="479" cy="442" r="3" fill="#f9d74f" opacity="0.9"/>
    <circle cx="95" cy="52" r="4" fill="#f9d74f" opacity="0.9"/>
    <circle cx="636" cy="93" r="5" fill="#f9d74f" opacity="0.9"/>
    <circle cx="185" cy="173" r="4" fill="#f9d74f" opacity="0.9"/>
    <circle cx="786" cy="173" r="3" fill="#f9d74f" opacity="0.9"/>
    <circle cx="217" cy="472" r="3" fill="#f9d74f" opacity="0.9"/>
    <circle cx="411" cy="377" r="4" fill="#f9d74f" opacity="0.9"/>
    <circle cx="868" cy="476" r="3" fill="#f9d74f" opacity="0.9"/>
    <circle cx="582" cy="166" r="5" fill="#f9d74f" opacity="0.9"/>
    <circle cx="1088" cy="202" r="3" fill="#f9d74f" opacity="0.9"/>
    <circle cx="566" cy="486" r="4" fill="#f9d74f" opacity="0.9"/>
    <circle cx="357" cy="198" r="3" fill="#f9d74f" opacity="0.9"/>
    <circle cx="1003" cy="375" r="4" fill="#f9d74f" opacity="0.9"/>
    <circle cx="910" cy="249" r="3" fill="#f9d74f" opacity="0.9"/>
    <circle cx="1135" cy="64" r="4" fill="#f9d74f" opacity="0.9"/>
    <circle cx="674" cy="268" r="3" fill="#f9d74f" opacity="0.9"/>
    <circle cx="556" cy="478" r="4" fill="#f9d74f" opacity="0.9"/>
    <circle cx="344" cy="419" r="4" fill="#f9d74f" opacity="0.9"/>
    <circle cx="514" cy="557" r="4" fill="#f9d74f" opacity="0.9"/>
    <circle cx="1085" cy="514" r="5" fill="#f9d74f" opacity="0.9"/>
    <circle cx="1043" cy="84" r="3" fill="#f9d74f" opacity="0.9"/>
    <circle cx="1022" cy="492" r="4" fill="#f9d74f" opacity="0.9"/>
    <circle cx="298" cy="450" r="5" fill="#f9d74f" opacity="0.9"/>
    <circle cx="735" cy="571" r="4" fill="#f9d74f" opacity="0.9"/>
    <circle cx="1023" cy="189" r="5" fill="#f9d74f" opacity="0.9"/>
    <circle cx="923" cy="121" r="4" fill="#f9d74f" opacity="0.9"/>
    <circle cx="92" cy="22" r="4" fill="#f9d74f" opacity="0.9"/>
    <circle cx="1116" cy="86" r="3" fill="#f9d74f" opacity="0.9"/>
    <circle cx="736" cy="114" r="3" fill="#f9d74f" opacity="0.9"/>
    <circle cx="242" cy="484" r="4" fill="#f9d74f" opacity="0.9"/>
    <circle cx="305" cy="489" r="4" fill="#f9d74f" opacity="0.9"/>
    <circle cx="1046" cy="477" r="4" fill="#f9d74f" opacity="0.9"/>
    <circle cx="550" cy="489" r="4" fill="#f9d74f" opacity="0.9"/>
    <circle cx="692" cy="552" r="5" fill="#f9d74f" opacity="0.9"/>
    <circle cx="334" cy="263" r="4" fill="#f9d74f" opacity="0.9"/>
    <circle cx="87" cy="220" r="5" fill="#f9d74f" opacity="0.9"/>
    <circle cx="1000" cy="45" r="3" fill="#f9d74f" opacity="0.9"/>
    <circle cx="626" cy="465" r="3" fill="#f9d74f" opacity="0.9"/>
    <circle cx="612" cy="111" r="3" fill="#f9d74f" opacity="0.9"/>
    <circle cx="1147" cy="128" r="4" fill="#f9d74f" opacity="0.9"/>
    <circle cx="353" cy="508" r="3" fill="#f9d74f" opacity="0.9"/>
    <circle cx="759" cy="629" r="4" fill="#f9d74f" opacity="0.9"/>
    <circle cx="413" cy="378" r="3" fill="#f9d74f" opacity="0.9"/>
    <circle cx="183" cy="625" r="3" fill="#f9d74f" opacity="0.9"/>
    <circle cx="893" cy="232" r="3" fill="#f9d74f" opacity="0.9"/>
    <circle cx="651" cy="494" r="5" fill="#f9d74f" opacity="0.9"/>
    <circle cx="1089" cy="453" r="4" fill="#f9d74f" opacity="0.9"/>
    <circle cx="1157" cy="233" r="4" fill="#f9d74f" opacity="0.9"/>
    <circle cx="766" cy="138" r="5" fill="#f9d74f" opacity="0.9"/>
    <circle cx="35" cy="234" r="4" fill="#f9d74f" opacity="0.9"/>
    <circle cx="856" cy="411" r="5" fill="#f9d74f" opacity="0.9"/>
    <circle cx="429" cy="91" r="4" fill="#f9d74f" opacity="0.9"/>
    <circle cx="202" cy="76" r="4" fill="#f9d74f" opacity="0.9"/>
    <circle cx="541" cy="388" r="4" fill="#f9d74f" opacity="0.9"/>
    <circle cx="888" cy="218" r="5" fill="#f9d74f" opacity="0.9"/>
    <circle cx="598" cy="497" r="5" fill="#f9d74f" opacity="0.9"/>
    <circle cx="622" cy="538" r="4" fill="#f9d74f" opacity="0.9"/>
    <circle cx="1059" cy="289" r="4" fill="#f9d74f" opacity="0.9"/>
    <circle cx="924" cy="369" r="4" fill="#f9d74f" opacity="0.9"/>
    <circle cx="587" cy="514" r="4" fill="#f9d74f" opacity="0.9"/>
    <circle cx="996" cy="621" r="4" fill="#f9d74f" opacity="0.9"/>
    <circle cx="191" cy="572" r="5" fill="#f9d74f" opacity="0.9"/>
    <circle cx="771" cy="434" r="3" fill="#f9d74f" opacity="0.9"/>
    <circle cx="871" cy="597" r="3" fill="#f9d74f" opacity="0.9"/>
    <circle cx="647" cy="36" r="5" fill="#f9d74f" opacity="0.9"/>
    <circle cx="691" cy="349" r="3" fill="#f9d74f" opacity="0.9"/>
    <circle cx="832" cy="402" r="4" fill="#f9d74f" opacity="0.9"/>
    <circle cx="401" cy="266" r="3" fill="#f9d74f" opacity="0.9"/>
    <circle cx="650" cy="117" r="5" fill="#f9d74f" opacity="0.9"/>
    <circle cx="129" cy="245" r="5" fill="#f9d74f" opacity="0.9"/>
    <circle cx="171" cy="451" r="3" fill="#f9d74f" opacity="0.9"/>
    <circle cx="919" cy="627" r="3" fill="#f9d74f" opacity="0.9"/>
    <circle cx="823" cy="226" r="4" fill="#f9d74f" opacity="0.9"/>
    <circle cx="410" cy="555" r="5" fill="#f9d74f" opacity="0.9"/>
    <circle cx="689" cy="68" r="5" fill="#f9d74f" opacity="0.9"/>
    <circle cx="122" cy="57" r="5" fill="#f9d74f" opacity="0.9"/>
    <circle cx="769" cy="426" r="4" fill="#f9d74f" opacity="0.9"/>
    <circle cx="371" cy="181" r="3" fill="#f9d74f" opacity="0.9"/>
    <circle cx="727" cy="188" r="3" fill="#f9d74f" opacity="0.9"/>
    <circle cx="1119" cy="543" r="4" fill="#f9d74f" opacity="0.9"/>
    <circle cx="200" cy="426" r="4" fill="#f9d74f" opacity="0.9"/>
    <circle cx="732" cy="81" r="3" fill="#f9d74f" opacity="0.9"/>
    <circle cx="930" cy="502" r="5" fill="#f9d74f" opacity="0.9"/>
    <circle cx="944" cy="472" r="5" fill="#f9d74f" opacity="0.9"/>
    <circle cx="378" cy="382" r="4" fill="#f9d74f" opacity="0.9"/>
    <circle cx="723" cy="592" r="5" fill="#f9d74f" opacity="0.9"/>
    <circle cx="958" cy="417" r="3" fill="#f9d74f" opacity="0.9"/>
    <circle cx="218" cy="463" r="5" fill="#f9d74f" opacity="0.9"/>
    <circle cx="332" cy="62" r="3" fill="#f9d74f" opacity="0.9"/>
    <circle cx="409" cy="603" r="4" fill="#f9d74f" opacity="0.9"/>
    <circle cx="757" cy="592" r="4" fill="#f9d74f" opacity="0.9"/>
    <circle cx="122" cy="73" r="3" fill="#f9d74f" opacity="0.9"/>
    <circle cx="656" cy="248" r="3" fill="#f9d74f" opacity="0.9"/>
    <circle cx="381" cy="122" r="5" fill="#f9d74f" opacity="0.9"/>
    <circle cx="1176" cy="389" r="3" fill="#f9d74f" opacity="0.9"/>
    <circle cx="639" cy="63" r="4" fill="#f9d74f" opacity="0.9"/>
    <circle cx="898" cy="99" r="4" fill="#f9d74f" opacity="0.9"/>
    <circle cx="419" cy="523" r="3" fill="#f9d74f" opacity="0.9"/>
    <circle cx="364" cy="435" r="4" fill="#f9d74f" opacity="0.9"/>
    <circle cx="692" cy="58" r="3" fill="#f9d74f" opacity="0.9"/>
    <circle cx="380" cy="615" r="5" fill="#f9d74f" opacity="0.9"/>
    <circle cx="881" cy="176" r="5" fill="#f9d74f" opacity="0.9"/>
    <circle cx="822" cy="116" r="4" fill="#f9d74f" opacity="0.9"/>
    <circle cx="262" cy="260" r="3" fill="#f9d74f" opacity="0.9"/>
    <circle cx="885" cy="338" r="5" fill="#f9d74f" opacity="0.9"/>
    <circle cx="613" cy="566" r="5" fill="#f9d74f" opacity="0.9"/>
    <circle cx="222" cy="373" r="5" fill="#f9d74f" opacity="0.9"/>
    <circle cx="993" cy="270" r="5" fill="#f9d74f" opacity="0.9"/>
    <circle cx="615" cy="32" r="5" fill="#f9d74f" opacity="0.9"/>
    <circle cx="343" cy="415" r="5" fill="#f9d74f" opacity="0.9"/>
    <circle cx="488" cy="119" r="5" fill="#f9d74f" opacity="0.9"/>
    <circle cx="991" cy="122" r="5" fill="#f9d74f" opacity="0.9"/>
    <circle cx="837" cy="616" r="3" fill="#f9d74f" opacity="0.9"/>
    <circle cx="608" cy="383" r="3" fill="#f9d74f" opacity="0.9"/>
    <circle cx="406" cy="591" r="5" fill="#f9d74f" opacity="0.9"/>
    <circle cx="73" cy="96" r="4" fill="#f9d74f" opacity="0.9"/>
    <circle cx="84" cy="37" r="5" fill="#f9d74f" opacity="0.9"/>
    <circle cx="901" cy="366" r="3" fill="#f9d74f" opacity="0.9"/>
    <circle cx="117" cy="387" r="4" fill="#f9d74f" opacity="0.9"/>
    <circle cx="995" cy="195" r="3" fill="#f9d74f" opacity="0.9"/>
    <circle cx="441" cy="150" r="4" fill="#f9d74f" opacity="0.9"/>
    <circle cx="432" cy="272" r="3" fill="#f9d74f" opacity="0.9"/>
    <circle cx="811" cy="578" r="5" fill="#f9d74f" opacity="0.9"/>
    <circle cx="877" cy="584" r="3" fill="#f9d74f" opacity="0.9"/>
    <circle cx="276" cy="25" r="3" fill="#f9d74f" opacity="0.9"/>
    <circle cx="76" cy="76" r="5" fill="#f9d74f" opacity="0.9"/>
    <circle cx="384" cy="147" r="5" fill="#f9d74f" opacity="0.9"/>
    <circle cx="809" cy="89" r="3" fill="#f9d74f" opacity="0.9"/>
    <circle cx="908" cy="207" r="5" fill="#f9d74f" opacity="0.9"/>
    <circle cx="883" cy="68" r="5" fill="#f9d74f" opacity="0.9"/>
    <circle cx="367" cy="74" r="5" fill="#f9d74f" opacity="0.9"/>
    <circle cx="790" cy="612" r="4" fill="#f9d74f" opacity="0.9"/>
    <circle cx="952" cy="363" r="3" fill="#f9d74f" opacity="0.9"/>
    <circle cx="90" cy="428" r="5" fill="#f9d74f" opacity="0.9"/>
    <circle cx="961" cy="520" r="5" fill="#f9d74f" opacity="0.9"/>
    <circle cx="766" cy="92" r="3" fill="#f9d74f" opacity="0.9"/>
    <circle cx="563" cy="279" r="3" fill="#f9d74f" opacity="0.9"/>
    <circle cx="206" cy="491" r="3" fill="#f9d74f" opacity="0.9"/>
    <circle cx="334" cy="304" r="3" fill="#f9d74f" opacity="0.9"/>
    <circle cx="1094" cy="335" r="3" fill="#f9d74f" opacity="0.9"/>
    <circle cx="234" cy="569" r="3" fill="#f9d74f" opacity="0.9"/>
  </g>
  <g id="links" stroke="#8ba6ff" stroke-width="2.5" stroke-linecap="round" stroke-linejoin="round" opacity="0.55">
    <path d="M330 290 Q520 120 830 280" />
    <path d="M330 310 Q540 200 820 300" />
    <path d="M340 330 Q560 360 850 340" />
    <path d="M320 350 Q520 460 840 360" />
    <path d="M350 370 Q560 520 840 380" />
    <path d="M360 260 Q600 180 860 260" />
  </g>
  <g id="left-constellation">
    <g filter="url(#glow)">
      <circle cx="280" cy="300" r="76" fill="none" stroke="#ff8ab3" stroke-width="6" opacity="0.8"/>
      <circle cx="280" cy="300" r="64" fill="none" stroke="#ffbfd6" stroke-width="2" opacity="0.9"/>
      <circle cx="280" cy="300" r="50" fill="#101435" stroke="#ff8ab3" stroke-width="3" opacity="0.95"/>
      <circle cx="280" cy="300" r="24" fill="#ff4f75"/>
    </g>
    <g fill="#ff6f92" stroke="#ffbfd6" stroke-width="1.4" opacity="0.9">
      <circle cx="170" cy="160" r="12"/>
      <circle cx="170" cy="440" r="10"/>
      <circle cx="220" cy="520" r="11"/>
      <circle cx="120" cy="320" r="9"/>
      <circle cx="240" cy="140" r="10"/>
      <circle cx="360" cy="170" r="9"/>
      <circle cx="380" cy="430" r="12"/>
      <circle cx="340" cy="520" r="10"/>
      <circle cx="430" cy="320" r="11"/>
      <circle cx="210" cy="250" r="9"/>
      <circle cx="240" cy="380" r="9"/>
      <circle cx="320" cy="410" r="9"/>
    </g>
    <g stroke="#ff9cc0" stroke-width="2.2" stroke-linecap="round" opacity="0.6">
      <line x1="280" y1="300" x2="170" y2="160"/>
      <line x1="280" y1="300" x2="170" y2="440"/>
      <line x1="280" y1="300" x2="220" y2="520"/>
      <line x1="280" y1="300" x2="120" y2="320"/>
      <line x1="280" y1="300" x2="240" y2="140"/>
      <line x1="280" y1="300" x2="360" y2="170"/>
      <line x1="280" y1="300" x2="380" y2="430"/>
      <line x1="280" y1="300" x2="340" y2="520"/>
      <line x1="280" y1="300" x2="430" y2="320"/>
      <line x1="280" y1="300" x2="210" y2="250"/>
      <line x1="280" y1="300" x2="240" y2="380"/>
      <line x1="280" y1="300" x2="320" y2="410"/>
    </g>
  </g>
  <g id="right-constellation">
    <g filter="url(#glow)">
      <circle cx="900" cy="320" r="76" fill="none" stroke="#67f5d8" stroke-width="6" opacity="0.85"/>
      <circle cx="900" cy="320" r="64" fill="none" stroke="#a8ffee" stroke-width="2" opacity="0.9"/>
      <circle cx="900" cy="320" r="50" fill="#0f1f37" stroke="#67f5d8" stroke-width="3" opacity="0.95"/>
      <circle cx="900" cy="320" r="24" fill="#3cf2c2"/>
    </g>
    <g fill="#49e6c0" stroke="#a8ffee" stroke-width="1.4" opacity="0.92">
      <circle cx="800" cy="160" r="11"/>
      <circle cx="780" cy="420" r="10"/>
      <circle cx="820" cy="520" r="11"/>
      <circle cx="1040" cy="180" r="10"/>
      <circle cx="1060" cy="340" r="12"/>
      <circle cx="1000" cy="500" r="10"/>
      <circle cx="960" cy="160" r="9"/>
      <circle cx="1040" cy="440" r="9"/>
      <circle cx="850" cy="200" r="9"/>
      <circle cx="860" cy="420" r="9"/>
      <circle cx="940" cy="400" r="10"/>
      <circle cx="990" cy="260" r="10"/>
    </g>
    <g stroke="#7afbe1" stroke-width="2.2" stroke-linecap="round" opacity="0.6">
      <line x1="900" y1="320" x2="800" y2="160"/>
      <line x1="900" y1="320" x2="780" y2="420"/>
      <line x1="900" y1="320" x2="820" y2="520"/>
      <line x1="900" y1="320" x2="1040" y2="180"/>
      <line x1="900" y1="320" x2="1060" y2="340"/>
      <line x1="900" y1="320" x2="1000" y2="500"/>
      <line x1="900" y1="320" x2="960" y2="160"/>
      <line x1="900" y1="320" x2="1040" y2="440"/>
      <line x1="900" y1="320" x2="850" y2="200"/>
      <line x1="900" y1="320" x2="860" y2="420"/>
      <line x1="900" y1="320" x2="940" y2="400"/>
      <line x1="900" y1="320" x2="990" y2="260"/>
    </g>
  </g>
</svg>
